<svg xmlns="http://www.w3.org/2000/svg" width="77.234" height="115.671" viewBox="0 0 77.234 115.671">
  <g id="logo-main-icon-bl" transform="translate(0)">
    <g id="k" transform="translate(0)">
      <path id="Union_1" data-name="Union 1" d="M46.688,37.485,1.674,15.53a2.022,2.022,0,0,1-.31-3.9L34.81.111a2.021,2.021,0,1,1,1.316,3.822L7.4,13.824l41.06,20.027a2.022,2.022,0,1,1-1.772,3.634Z" transform="translate(0 72.474)"/>
      <rect id="Rectangle_17" data-name="Rectangle 17" width="3.186" height="110.963" rx="1.593" transform="translate(8.042)"/>
    </g>
    <g id="A" transform="translate(3.793 48.721)">
      <path id="Union_1-2" data-name="Union 1" d="M51.16,41.074,1.835,17.017a2.216,2.216,0,0,1-.341-4.277L38.144.122A2.215,2.215,0,1,1,39.586,4.31L8.109,15.148,53.1,37.093a2.215,2.215,0,1,1-1.941,3.982Z" transform="matrix(0.438, 0.899, -0.899, 0.438, 37.119, 0)"/>
      <rect id="Rectangle_17-2" data-name="Rectangle 17" width="3.322" height="75.307" rx="1.661" transform="matrix(0.446, 0.895, -0.895, 0.446, 71.959, 15.187)"/>
    </g>
  </g>
</svg>
