<svg xmlns="http://www.w3.org/2000/svg" width="77.519" height="116.097" viewBox="0 0 77.519 116.097">
  <g id="logo-main-icon-wh" transform="translate(0)">
    <g id="k" transform="translate(0)">
      <path id="Union_1" data-name="Union 1" d="M46.86,37.623,1.683,15.587a2.029,2.029,0,0,1-.314-3.917L34.939.111a2.029,2.029,0,1,1,1.32,3.837L7.427,13.875l41.212,20.1a2.029,2.029,0,1,1-1.779,3.647Z" transform="translate(0 72.741)" fill="#fff"/>
      <rect id="Rectangle_17" data-name="Rectangle 17" width="3.197" height="111.372" rx="1.599" transform="translate(8.072)" fill="#fff"/>
    </g>
    <g id="A" transform="translate(3.807 48.901)">
      <path id="Union_1-2" data-name="Union 1" d="M51.348,41.225,1.841,17.079A2.223,2.223,0,0,1,1.5,12.787L38.284.122a2.223,2.223,0,1,1,1.447,4.2L8.138,15.2,53.3,37.229a2.223,2.223,0,1,1-1.949,4Z" transform="matrix(0.438, 0.899, -0.899, 0.438, 37.256, 0)" fill="#fff"/>
      <rect id="Rectangle_17-2" data-name="Rectangle 17" width="3.335" height="75.584" rx="1.667" transform="matrix(0.446, 0.895, -0.895, 0.446, 72.224, 15.243)" fill="#fff"/>
    </g>
  </g>
</svg>
